<?xml version="1.0" encoding="iso-8859-1"?>
<!-- Uploaded to: SVG Repo, www.svgrepo.com, Generator: SVG Repo Mixer Tools -->
<svg fill="#000000" height="800px" width="800px" version="1.1" id="Capa_1" xmlns="http://www.w3.org/2000/svg" xmlns:xlink="http://www.w3.org/1999/xlink" 
	 viewBox="0 0 57.602 57.602" xml:space="preserve">
<g>
	<path d="M57.337,52.327L30.353,3.279c-0.361-0.617-1.005-0.986-1.722-0.986c-0.721,0-1.366,0.373-1.74,1.02L0.272,52.313
		c-0.362,0.624-0.363,1.371-0.002,1.997c0.36,0.625,1.007,0.999,1.729,0.999h53.603c0.724,0,1.371-0.375,1.731-1.003
		C57.693,53.678,57.689,52.93,57.337,52.327z M5.539,51.309L28.642,8.15l23.396,43.159H5.539z"/>
	<path d="M27.599,21.309v17c0,0.553,0.447,1,1,1s1-0.447,1-1v-17c0-0.553-0.447-1-1-1S27.599,20.757,27.599,21.309z"/>
	<path d="M28.599,41.309c-0.553,0-1,0.447-1,1v2c0,0.553,0.447,1,1,1s1-0.447,1-1v-2C29.599,41.757,29.151,41.309,28.599,41.309z"/>
</g>
</svg>